<?xml version="1.0" encoding="UTF-8"?>
<!DOCTYPE svg PUBLIC "-//W3C//DTD SVG 1.1//EN" "http://www.w3.org/Graphics/SVG/1.1/DTD/svg11.dtd">
<svg xmlns="http://www.w3.org/2000/svg" version="1.1" width="418px" height="150px" style="shape-rendering:geometricPrecision; text-rendering:geometricPrecision; image-rendering:optimizeQuality; fill-rule:evenodd; clip-rule:evenodd" xmlns:xlink="http://www.w3.org/1999/xlink">
<g><path style="opacity:1" fill="#f6f5f5" d="M -0.5,-0.5 C 138.833,-0.5 278.167,-0.5 417.5,-0.5C 417.5,49.5 417.5,99.5 417.5,149.5C 278.167,149.5 138.833,149.5 -0.5,149.5C -0.5,99.5 -0.5,49.5 -0.5,-0.5 Z"/></g>
<g><path style="opacity:1" fill="#ff9105" d="M 61.5,19.5 C 89.6708,16.9981 110.504,27.9981 124,52.5C 127.577,60.1361 129.244,68.1361 129,76.5C 119.686,87.3155 110.186,97.9821 100.5,108.5C 105.417,110.361 110.417,112.028 115.5,113.5C 100.81,129.789 82.4768,136.289 60.5,133C 28.1122,123.259 12.9456,101.425 15,67.5C 20.9401,42.0622 36.4401,26.0622 61.5,19.5 Z"/></g>
<g><path style="opacity:1" fill="#505050" d="M 168.5,27.5 C 170.857,27.3367 173.19,27.5034 175.5,28C 172.962,34.9791 171.462,42.1458 171,49.5C 182.572,45.9495 189.905,49.9495 193,61.5C 194.714,79.5875 186.881,91.0875 169.5,96C 164.833,96.6667 160.167,96.6667 155.5,96C 152.202,95.5133 149.202,94.3466 146.5,92.5C 151.545,71.2111 156.878,50.0444 162.5,29C 164.708,28.8091 166.708,28.3091 168.5,27.5 Z"/></g>
<g><path style="opacity:1" fill="#515151" d="M 211.5,28.5 C 220.347,26.6299 223.847,29.9632 222,38.5C 217.229,44.5826 212.229,44.9159 207,39.5C 206.333,37.8333 206.333,36.1667 207,34.5C 208.332,32.34 209.832,30.34 211.5,28.5 Z"/></g>
<g><path style="opacity:1" fill="#525252" d="M 351.5,28.5 C 362.488,27.0006 365.488,31.1673 360.5,41C 355.506,44.6659 351.006,44.1659 347,39.5C 346.333,37.8333 346.333,36.1667 347,34.5C 348.332,32.34 349.832,30.34 351.5,28.5 Z"/></g>
<g><path style="opacity:1" fill="#515151" d="M 240.5,46.5 C 239.596,47.209 239.263,48.209 239.5,49.5C 244.363,49.1805 249.03,49.5139 253.5,50.5C 253.149,53.2377 252.482,55.9044 251.5,58.5C 246.617,59.1906 241.784,59.8572 237,60.5C 235.342,66.7982 233.842,73.1316 232.5,79.5C 232.406,81.9116 233.406,83.745 235.5,85C 239.332,85.7622 242.998,85.2622 246.5,83.5C 247.489,87.1073 247.823,90.774 247.5,94.5C 243.201,95.3239 238.867,95.9906 234.5,96.5C 224.74,96.5734 219.74,91.74 219.5,82C 221.972,66.6095 225.638,51.6095 230.5,37C 234.491,36.3583 238.491,35.8583 242.5,35.5C 241.674,39.1359 241.008,42.8026 240.5,46.5 Z"/></g>
<g><path style="opacity:1" fill="#fffcf9" d="M 69.5,39.5 C 71.5,39.8333 73.5,40.1667 75.5,40.5C 74.6745,44.1359 74.0078,47.8026 73.5,51.5C 75.1439,51.2865 76.6439,51.6198 78,52.5C 79.1503,49.2321 79.9836,45.8988 80.5,42.5C 83.3227,42.0254 85.3227,43.0254 86.5,45.5C 85.6716,48.4788 85.0049,51.4788 84.5,54.5C 96.2046,57.0063 99.7046,63.6729 95,74.5C 93.1667,75.6667 91.3333,76.8333 89.5,78C 95.1088,81.2769 96.9422,86.1103 95,92.5C 93.9979,96.6803 91.4979,99.5136 87.5,101C 82.5016,102.398 77.5016,102.898 72.5,102.5C 71.3584,105.399 70.6917,108.399 70.5,111.5C 67.3833,112.073 65.3833,110.906 64.5,108C 65.2755,105.178 65.9421,102.344 66.5,99.5C 64.8561,99.7135 63.3561,99.3802 62,98.5C 60.5387,101.679 59.7054,105.012 59.5,108.5C 56.6205,108.967 54.2871,108.134 52.5,106C 53.5655,102.906 54.2322,99.7396 54.5,96.5C 50.3452,96.128 46.3452,95.128 42.5,93.5C 43.6005,91.3584 44.6005,89.1917 45.5,87C 48.0261,87.6317 50.5261,87.4651 53,86.5C 55.0323,76.704 57.5323,67.0373 60.5,57.5C 58.5562,54.8446 55.8895,53.5113 52.5,53.5C 52.9926,51.1944 53.3259,48.861 53.5,46.5C 58.1667,47.5 62.8333,48.5 67.5,49.5C 67.5399,46.0124 68.2066,42.6791 69.5,39.5 Z"/></g>
<g><path style="opacity:1" fill="#9e9e9e" d="M 240.5,46.5 C 244.762,48.1276 249.429,49.1276 254.5,49.5C 254.376,50.1067 254.043,50.44 253.5,50.5C 249.03,49.5139 244.363,49.1805 239.5,49.5C 239.263,48.209 239.596,47.209 240.5,46.5 Z"/></g>
<g><path style="opacity:1" fill="#515151" d="M 274.5,47.5 C 280.901,46.9017 286.901,48.0684 292.5,51C 291.074,53.7733 289.74,56.6066 288.5,59.5C 288,59.8333 287.5,60.1667 287,60.5C 276.419,56.3587 269.419,59.6921 266,70.5C 264.704,84.118 270.537,88.4514 283.5,83.5C 284.489,87.1073 284.823,90.774 284.5,94.5C 261.348,100.835 250.848,92.1683 253,68.5C 256.124,57.2081 263.29,50.2081 274.5,47.5 Z"/></g>
<g><path style="opacity:1" fill="#505050" d="M 310.5,47.5 C 328.43,46.989 335.93,55.6556 333,73.5C 328.19,92.6518 316.356,99.4852 297.5,94C 290.637,88.078 288.137,80.578 290,71.5C 292.408,59.6007 299.241,51.6007 310.5,47.5 Z"/></g>
<g><path style="opacity:1" fill="#515151" d="M 396.5,93.5 C 394.254,94.1066 391.921,94.44 389.5,94.5C 387.048,94.4609 385.048,93.7943 383.5,92.5C 385.37,83.1531 387.37,73.8198 389.5,64.5C 389.61,62.626 388.944,61.126 387.5,60C 384.518,59.502 381.518,59.3354 378.5,59.5C 375.518,71.4299 372.851,83.4299 370.5,95.5C 366.167,95.5 361.833,95.5 357.5,95.5C 360.19,81.0731 363.356,66.7398 367,52.5C 372.11,49.1137 377.776,47.7804 384,48.5C 398.454,47.619 404.454,54.2857 402,68.5C 399.736,76.7548 397.903,85.0881 396.5,93.5 Z"/></g>
<g><path style="opacity:1" fill="#505050" d="M 207.5,94.5 C 203.029,95.0894 199.029,94.4228 195.5,92.5C 198.203,78.3543 201.536,64.3543 205.5,50.5C 209.833,49.1667 214.167,49.1667 218.5,50.5C 214.517,65.0998 210.85,79.7664 207.5,94.5 Z"/></g>
<g><path style="opacity:1" fill="#515151" d="M 345.5,49.5 C 349.884,49.1744 354.217,49.5078 358.5,50.5C 354.687,65.0857 351.187,79.7524 348,94.5C 343.55,95.8001 339.05,95.8001 334.5,94.5C 338.333,79.5008 342,64.5008 345.5,49.5 Z"/></g>
<g><path style="opacity:1" fill="#ff9412" d="M 71.5,58.5 C 76.1201,59.0942 80.2868,60.7609 84,63.5C 85.1201,66.9994 84.2868,69.8328 81.5,72C 77.141,72.5343 72.8076,72.3676 68.5,71.5C 69.3434,67.1266 70.3434,62.7933 71.5,58.5 Z"/></g>
<g><path style="opacity:1" fill="#f3f3f3" d="M 168.5,59.5 C 175.968,57.3793 179.968,60.046 180.5,67.5C 179.938,79.7309 173.605,85.7309 161.5,85.5C 163.216,76.632 165.55,67.9653 168.5,59.5 Z"/></g>
<g><path style="opacity:1" fill="#f2f2f2" d="M 311.5,58.5 C 314.272,58.22 316.772,58.8866 319,60.5C 322.211,69.5269 320.378,77.3602 313.5,84C 306.03,86.8838 302.363,84.2171 302.5,76C 302.5,68.4969 305.5,62.6636 311.5,58.5 Z"/></g>
<g><path style="opacity:1" fill="#febc11" d="M 136.5,72.5 C 137.043,72.56 137.376,72.8933 137.5,73.5C 133.593,81.7276 129.593,89.8943 125.5,98C 132.406,100.48 139.406,102.813 146.5,105C 135.333,116.167 124.167,127.333 113,138.5C 115.883,130.048 119.383,121.714 123.5,113.5C 123.291,112.914 122.957,112.414 122.5,112C 116.738,111.025 111.405,109.192 106.5,106.5C 116.894,95.4437 126.894,84.1104 136.5,72.5 Z"/></g>
<g><path style="opacity:1" fill="#ff9515" d="M 66.5,77.5 C 72.2536,78.0282 77.4203,80.0282 82,83.5C 83.823,90.3487 81.1563,93.682 74,93.5C 70.4728,92.9091 66.9728,92.2425 63.5,91.5C 64.5,86.8333 65.5,82.1667 66.5,77.5 Z"/></g>
<g><path style="opacity:1" fill="#919191" d="M 195.5,92.5 C 199.029,94.4228 203.029,95.0894 207.5,94.5C 203.366,95.4849 199.032,95.8182 194.5,95.5C 194.263,94.209 194.596,93.209 195.5,92.5 Z"/></g>
<g><path style="opacity:1" fill="#999999" d="M 383.5,92.5 C 385.048,93.7943 387.048,94.4609 389.5,94.5C 391.921,94.44 394.254,94.1066 396.5,93.5C 392.285,95.4364 387.619,96.1031 382.5,95.5C 382.263,94.209 382.596,93.209 383.5,92.5 Z"/></g>
<g><path style="opacity:1" fill="#5c5c5c" d="M 174.5,109.5 C 183.814,110.362 183.814,111.529 174.5,113C 172.604,114.808 172.104,116.975 173,119.5C 176.669,121.009 178.169,119.676 177.5,115.5C 178.5,115.5 179.5,115.5 180.5,115.5C 181.325,121.997 178.658,124.497 172.5,123C 168.188,117.731 168.855,113.231 174.5,109.5 Z"/></g>
<g><path style="opacity:1" fill="#5e5e5e" d="M 248.5,109.5 C 257.814,110.362 257.814,111.529 248.5,113C 246.604,114.808 246.104,116.975 247,119.5C 250.309,120.676 251.809,119.343 251.5,115.5C 252.5,115.5 253.5,115.5 254.5,115.5C 254.726,123.564 251.393,125.564 244.5,121.5C 242.469,116.294 243.803,112.294 248.5,109.5 Z"/></g>
<g><path style="opacity:1" fill="#787878" d="M 308.5,109.5 C 310.527,109.338 312.527,109.505 314.5,110C 317.167,112.333 317.167,114.667 314.5,117C 312.5,117.667 310.5,118.333 308.5,119C 307.853,120.609 307.02,122.109 306,123.5C 306.497,118.83 307.33,114.164 308.5,109.5 Z"/></g>
<g><path style="opacity:1" fill="#6e6e6e" d="M 318.5,110.5 C 321.304,109.362 324.304,109.195 327.5,110C 326.062,110.219 324.729,110.719 323.5,111.5C 322.335,115.494 321.168,119.494 320,123.5C 320.002,119.14 320.502,114.807 321.5,110.5C 320.5,110.5 319.5,110.5 318.5,110.5 Z"/></g>
<g><path style="opacity:1" fill="#707070" d="M 344.5,121.5 C 342.004,123.829 339.337,123.996 336.5,122C 337.942,117.959 338.942,113.792 339.5,109.5C 346.99,108.302 349.823,111.302 348,118.5C 347.578,120.426 346.411,121.426 344.5,121.5 Z"/></g>
<g><path style="opacity:1" fill="#606060" d="M 154.5,109.5 C 155.5,109.5 156.5,109.5 157.5,109.5C 157.048,112.876 156.382,116.209 155.5,119.5C 157.423,120.308 159.423,120.808 161.5,121C 158.594,123.584 155.261,124.084 151.5,122.5C 153.124,118.299 154.124,113.966 154.5,109.5 Z"/></g>
<g><path style="opacity:1" fill="#5d5d5d" d="M 165.5,109.5 C 166.5,109.5 167.5,109.5 168.5,109.5C 167.5,114.167 166.5,118.833 165.5,123.5C 164.5,123.5 163.5,123.5 162.5,123.5C 163.5,118.833 164.5,114.167 165.5,109.5 Z"/></g>
<g><path style="opacity:1" fill="#5d5d5d" d="M 185.5,109.5 C 187.256,110.552 187.923,112.219 187.5,114.5C 189.167,114.5 190.833,114.5 192.5,114.5C 192.5,112.833 192.5,111.167 192.5,109.5C 193.5,109.5 194.5,109.5 195.5,109.5C 194.71,113.872 193.71,118.206 192.5,122.5C 191.5,123.833 190.5,123.833 189.5,122.5C 190.309,120.929 190.643,119.262 190.5,117.5C 186.092,117.062 184.425,119.062 185.5,123.5C 184.5,123.5 183.5,123.5 182.5,123.5C 182.994,118.697 183.994,114.03 185.5,109.5 Z"/></g>
<g><path style="opacity:1" fill="#606060" d="M 197.5,109.5 C 201.167,109.5 204.833,109.5 208.5,109.5C 208.5,110.5 208.5,111.5 208.5,112.5C 206.833,112.5 205.167,112.5 203.5,112.5C 203.196,115.522 202.696,118.522 202,121.5C 201.174,123.405 200.007,123.739 198.5,122.5C 199.802,119.292 200.469,115.959 200.5,112.5C 199.5,112.5 198.5,112.5 197.5,112.5C 197.5,111.5 197.5,110.5 197.5,109.5 Z"/></g>
<g><path style="opacity:1" fill="#5d5d5d" d="M 210.5,109.5 C 211.675,109.281 212.675,109.614 213.5,110.5C 214.667,112.833 215.833,115.167 217,117.5C 217.822,114.883 218.322,112.216 218.5,109.5C 219.5,109.5 220.5,109.5 221.5,109.5C 220.974,113.936 219.974,118.269 218.5,122.5C 217.833,123.833 217.167,123.833 216.5,122.5C 213.08,112.977 211.08,113.31 210.5,123.5C 209.5,123.5 208.5,123.5 207.5,123.5C 208.185,118.761 209.185,114.094 210.5,109.5 Z"/></g>
<g><path style="opacity:1" fill="#606060" d="M 224.5,109.5 C 225.5,109.5 226.5,109.5 227.5,109.5C 226.83,113.851 225.996,118.184 225,122.5C 224.586,122.957 224.086,123.291 223.5,123.5C 223.167,122.5 222.833,121.5 222.5,120.5C 223.33,116.851 223.996,113.185 224.5,109.5 Z"/></g>
<g><path style="opacity:1" fill="#5c5c5c" d="M 231.5,109.5 C 232.496,109.414 233.329,109.748 234,110.5C 236.673,118.377 238.506,118.044 239.5,109.5C 240.675,109.281 241.675,109.614 242.5,110.5C 240.965,114.711 239.965,119.044 239.5,123.5C 238.5,123.5 237.5,123.5 236.5,123.5C 234.559,112.621 232.725,112.287 231,122.5C 229.513,123.741 228.68,123.241 228.5,121C 229.274,117.07 230.274,113.237 231.5,109.5 Z"/></g>
<g><path style="opacity:1" fill="#efefef" d="M 310.5,110.5 C 314.35,110.701 315.35,112.534 313.5,116C 311.741,116.798 310.074,116.631 308.5,115.5C 309.174,113.805 309.841,112.138 310.5,110.5 Z"/></g>
<g><path style="opacity:1" fill="#efefef" d="M 344.5,121.5 C 342.5,121.5 340.5,121.5 338.5,121.5C 339.016,118.101 339.85,114.768 341,111.5C 344.673,110.094 346.84,111.427 347.5,115.5C 347.016,117.801 346.016,119.801 344.5,121.5 Z"/></g>
<g><path style="opacity:1" fill="#717171" d="M 357.5,109.5 C 358.735,111.017 358.735,112.684 357.5,114.5C 359.743,115.474 362.076,115.808 364.5,115.5C 364.491,113.692 364.991,112.025 366,110.5C 366.29,115.014 365.457,119.348 363.5,123.5C 362.943,121.282 362.943,118.949 363.5,116.5C 361.396,116.201 359.396,116.534 357.5,117.5C 356.965,119.661 356.132,121.661 355,123.5C 355.497,118.83 356.33,114.164 357.5,109.5 Z"/></g>
<g><path style="opacity:1" fill="#747474" d="M 370.5,109.5 C 372.857,109.337 375.19,109.503 377.5,110C 375.423,110.192 373.423,110.692 371.5,111.5C 370.754,112.736 370.421,114.07 370.5,115.5C 372.199,115.34 373.866,115.506 375.5,116C 373.527,116.495 371.527,116.662 369.5,116.5C 369.5,118.167 369.5,119.833 369.5,121.5C 371.604,121.201 373.604,121.534 375.5,122.5C 372.914,123.48 370.247,123.813 367.5,123.5C 367.994,118.697 368.994,114.03 370.5,109.5 Z"/></g>
<g><path style="opacity:1" fill="#6f6f6f" d="M 392.5,109.5 C 394.857,109.337 397.19,109.503 399.5,110C 397.5,110.333 395.5,110.667 393.5,111C 392.62,112.356 392.286,113.856 392.5,115.5C 394.199,115.34 395.866,115.506 397.5,116C 395.527,116.495 393.527,116.662 391.5,116.5C 391.579,117.93 391.246,119.264 390.5,120.5C 392.5,121.167 394.5,121.833 396.5,122.5C 393.833,123.833 391.167,123.833 388.5,122.5C 389.994,118.184 391.327,113.85 392.5,109.5 Z"/></g>
<g><path style="opacity:1" fill="#6c6c6c" d="M 289.5,109.5 C 291.604,109.201 293.604,109.534 295.5,110.5C 288.36,109.977 285.36,113.31 286.5,120.5C 287.328,121.415 288.328,122.081 289.5,122.5C 290.768,121.572 292.101,121.405 293.5,122C 288.385,124.776 285.385,123.276 284.5,117.5C 284.672,113.807 286.339,111.141 289.5,109.5 Z"/></g>
<g><path style="opacity:1" fill="#747474" d="M 380.5,109.5 C 389.145,109.295 390.478,112.128 384.5,118C 386.958,124.921 386.625,125.087 383.5,118.5C 382.311,117.571 380.978,117.238 379.5,117.5C 379.628,119.655 379.128,121.655 378,123.5C 378.244,118.775 379.077,114.109 380.5,109.5 Z"/></g>
<g><path style="opacity:1" fill="#ebebeb" d="M 381.5,110.5 C 385.909,109.899 387.242,111.566 385.5,115.5C 383.929,116.309 382.262,116.643 380.5,116.5C 380.833,114.5 381.167,112.5 381.5,110.5 Z"/></g>
<g><path style="opacity:1" fill="#606060" d="M 266.5,112.5 C 266.415,111.005 267.081,110.005 268.5,109.5C 270.732,115.699 271.065,119.032 269.5,119.5C 265.486,118.824 262.486,120.157 260.5,123.5C 260.167,123.167 259.833,122.833 259.5,122.5C 261.363,118.75 263.697,115.417 266.5,112.5 Z"/></g>
<g><path style="opacity:1" fill="#ebebeb" d="M 266.5,112.5 C 267.117,112.389 267.617,112.056 268,111.5C 268.497,113.81 268.663,116.143 268.5,118.5C 266.801,118.66 265.134,118.494 263.5,118C 265.16,116.512 266.16,114.679 266.5,112.5 Z"/></g>
<g><path style="opacity:1" fill="#6d6d6d" d="M 278.5,109.5 C 280.288,109.215 281.955,109.548 283.5,110.5C 276.828,110.666 273.995,114 275,120.5C 276.857,122.631 279.023,123.131 281.5,122C 276.739,124.785 274.073,123.452 273.5,118C 273.525,114.105 275.192,111.272 278.5,109.5 Z"/></g>
<g><path style="opacity:1" fill="#7d7d7d" d="M 298.5,109.5 C 300.857,109.337 303.19,109.503 305.5,110C 303.423,110.192 301.423,110.692 299.5,111.5C 298.754,112.736 298.421,114.07 298.5,115.5C 305.134,115.677 305.134,116.177 298.5,117C 297.62,118.356 297.286,119.856 297.5,121.5C 299.604,121.201 301.604,121.534 303.5,122.5C 300.914,123.48 298.247,123.813 295.5,123.5C 296.191,118.74 297.191,114.074 298.5,109.5 Z"/></g>
<g><path style="opacity:1" fill="#7f7f7f" d="M 329.5,109.5 C 331.857,109.337 334.19,109.503 336.5,110C 334.527,110.495 332.527,110.662 330.5,110.5C 330.714,112.144 330.38,113.644 329.5,115C 336.167,115.667 336.167,116.333 329.5,117C 328.62,118.356 328.286,119.856 328.5,121.5C 330.604,121.201 332.604,121.534 334.5,122.5C 331.914,123.48 329.247,123.813 326.5,123.5C 327.245,118.773 328.245,114.106 329.5,109.5 Z"/></g>
</svg>
