<svg width="0" height="0" xmlns="http://www.w3.org/2000/svg">
<symbol id="small" viewBox="0 0 150 150">
<g><path style="opacity:0.892" fill="#00f016" d="M 35.5,1.5 C 40.4968,2.75523 44.6635,5.4219 48,9.5C 54.3742,20.4162 60.8742,31.2495 67.5,42C 72.4956,40.6872 77.4956,39.0206 82.5,37C 90.189,36.2679 97.8556,36.4345 105.5,37.5C 119.583,33.2707 132.583,35.4374 144.5,44C 157.79,58.1004 159.957,73.6004 151,90.5C 148.833,106.008 143.333,120.174 134.5,133C 139.667,146.5 144.833,160 150,173.5C 154.18,188.626 149.847,191.626 137,182.5C 130.293,170.917 123.459,159.417 116.5,148C 108.617,149.463 100.617,150.63 92.5,151.5C 81.4924,151.208 71.3257,148.208 62,142.5C 56.2712,145.281 50.7712,148.447 45.5,152C 39.1182,152.689 32.7849,152.355 26.5,151C 18.2525,144.941 15.0858,136.774 17,126.5C 18.2899,124.208 19.9565,122.208 22,120.5C 22.5447,114.887 25.3781,111.054 30.5,109C 34.3689,105.466 37.8689,101.633 41,97.5C 41.9267,94.4038 40.9267,92.0704 38,90.5C 37.3712,85.6722 38.0379,81.0055 40,76.5C 43.2084,70.0833 46.375,63.75 49.5,57.5C 44.4381,43.8172 39.2715,30.1505 34,16.5C 32.9548,11.2145 33.4548,6.21454 35.5,1.5 Z"/></g>
<g><path style="opacity:0.995" fill="#191919" d="M 144.5,49.5 C 142.5,49.5 140.5,49.5 138.5,49.5C 134.317,46.7829 129.984,45.1162 125.5,44.5C 122.976,43.1997 120.309,43.1997 117.5,44.5C 117.624,45.1067 117.957,45.44 118.5,45.5C 120.167,46.8333 121.833,48.1667 123.5,49.5C 124.64,51.7802 125.807,54.1136 127,56.5C 127.77,57.5981 128.603,57.5981 129.5,56.5C 130.234,57.7079 130.567,59.0413 130.5,60.5C 126.559,60.9 122.893,62.0666 119.5,64C 121.238,67.7413 123.738,70.908 127,73.5C 127.579,74.9285 127.412,76.2618 126.5,77.5C 125.833,77.5 125.167,77.5 124.5,77.5C 122.847,74.8565 120.513,72.8565 117.5,71.5C 116.021,73.6782 114.688,76.0115 113.5,78.5C 115.831,80.6174 116.997,83.284 117,86.5C 118,87.5 119,88.5 120,89.5C 120.498,94.5192 120.332,99.5192 119.5,104.5C 119.069,105.773 117.735,106.773 115.5,107.5C 113.176,102.184 110.843,96.8506 108.5,91.5C 106.628,93.5351 104.961,95.7017 103.5,98C 104.654,100.437 105.154,102.937 105,105.5C 102.204,109.134 98.7041,111.801 94.5,113.5C 98,119.833 101.5,126.167 105,132.5C 107,129.833 109,127.167 111,124.5C 111.081,120.968 110.581,117.468 109.5,114C 109.667,113.167 109.833,112.333 110,111.5C 117.97,127.117 126.137,142.45 134.5,157.5C 134.402,159.553 135.069,161.22 136.5,162.5C 136.371,160.784 136.038,159.117 135.5,157.5C 135.5,156.167 135.5,154.833 135.5,153.5C 136.5,153.5 137.5,153.5 138.5,153.5C 143.345,162.72 146.679,172.553 148.5,183C 148.167,183.833 147.833,184.667 147.5,185.5C 144.528,183.694 141.695,181.694 139,179.5C 132.05,166.574 124.383,154.241 116,142.5C 97.1484,150.958 78.9818,149.624 61.5,138.5C 55.7009,141.802 50.0343,145.302 44.5,149C 37.9925,149.833 31.6592,149.166 25.5,147C 20.6194,141.358 18.786,134.858 20,127.5C 21.6667,125.833 23.3333,124.167 25,122.5C 25.165,116.671 27.9983,112.838 33.5,111C 37.3689,107.466 40.8689,103.633 44,99.5C 44.6447,95.1107 45.478,90.7774 46.5,86.5C 47.8478,85.4732 48.3478,84.1398 48,82.5C 46.955,83.3734 46.1217,84.3734 45.5,85.5C 44.1667,86.9335 42.6667,88.2668 41,89.5C 42.0603,77.8736 46.5603,67.7069 54.5,59C 48.2607,44.6845 42.4274,30.1845 37,15.5C 36.3333,11.8333 36.3333,8.16667 37,4.5C 40.2974,6.79535 43.2974,9.46202 46,12.5C 53.1667,24.3333 60.3333,36.1667 67.5,48C 69.2889,48.5205 70.9556,48.1871 72.5,47C 71.2888,46.1072 71.2888,45.2739 72.5,44.5C 83.4161,39.0779 94.7494,38.0779 106.5,41.5C 120.953,35.9484 133.62,38.6151 144.5,49.5 Z"/></g>
<g><path style="opacity:0.247" fill="#adadad" d="M 48.5,28.5 C 45.9173,26.9416 44.7507,24.6082 45,21.5C 46.2617,23.7844 47.4283,26.1177 48.5,28.5 Z"/></g>
<g><path style="opacity:0.999" fill="#01f016" d="M 50.5,34.5 C 58.9706,50.7721 67.4706,67.1054 76,83.5C 76.1667,82.8333 76.3333,82.1667 76.5,81.5C 75.12,76.5632 74.62,71.5632 75,66.5C 76.6097,64.269 78.443,62.269 80.5,60.5C 84.2939,67.2538 87.9605,74.0871 91.5,81C 89.1667,81.3333 86.8333,81.6667 84.5,82C 81.4588,87.2502 78.2921,92.4168 75,97.5C 66.5292,76.5824 58.3625,55.5824 50.5,34.5 Z"/></g>
<g><path style="opacity:0.999" fill="#02f017" d="M 116.5,53.5 C 114.194,53.0074 111.861,52.6741 109.5,52.5C 107.712,51.3775 105.712,51.2109 103.5,52C 104.244,53.0386 105.244,53.5386 106.5,53.5C 107.429,54.3149 108.429,55.1482 109.5,56C 102.052,55.1799 94.5517,55.3465 87,56.5C 84.7419,55.3354 82.9086,53.6687 81.5,51.5C 78.8756,53.6218 76.3756,55.9552 74,58.5C 73.5348,57.0692 72.7014,55.9025 71.5,55C 76.5081,51.9947 81.8414,49.8281 87.5,48.5C 85.8872,47.5726 84.2205,46.7393 82.5,46C 95.4465,41.7632 106.78,44.2632 116.5,53.5 Z"/></g>
<g><path style="opacity:0.404" fill="#939393" d="M 125.5,44.5 C 122.941,44.1984 120.607,44.5318 118.5,45.5C 117.957,45.44 117.624,45.1067 117.5,44.5C 120.309,43.1997 122.976,43.1997 125.5,44.5 Z"/></g>
<g><path style="opacity:0.996" fill="#14f01f" d="M 118.5,45.5 C 120.607,44.5318 122.941,44.1984 125.5,44.5C 129.984,45.1162 134.317,46.7829 138.5,49.5C 135.053,48.4288 131.553,47.4288 128,46.5C 126.296,46.974 124.462,47.1407 122.5,47C 123.252,47.6708 123.586,48.5041 123.5,49.5C 121.833,48.1667 120.167,46.8333 118.5,45.5 Z"/></g>
<g><path style="opacity:0.486" fill="#878787" d="M 109.5,52.5 C 108.209,52.2627 107.209,52.596 106.5,53.5C 105.244,53.5386 104.244,53.0386 103.5,52C 105.712,51.2109 107.712,51.3775 109.5,52.5 Z"/></g>
<g><path style="opacity:1" fill="#02f017" d="M 140.5,61.5 C 140.083,60.8761 139.416,60.5427 138.5,60.5C 136.192,60.7075 134.859,61.3742 134.5,62.5C 136.477,64.8138 138.477,67.1472 140.5,69.5C 143.086,70.48 145.753,70.8134 148.5,70.5C 148.838,73.0115 148.838,75.3448 148.5,77.5C 146.775,76.9851 145.108,76.3184 143.5,75.5C 144.894,74.3131 144.727,73.6465 143,73.5C 137.035,73.1406 134.035,75.8073 134,81.5C 137.576,76.2515 141.076,76.4182 144.5,82C 141.902,81.5783 139.236,81.5783 136.5,82C 138.448,82.9832 140.282,84.1498 142,85.5C 143.035,92.1519 142.035,98.4853 139,104.5C 138.882,101.629 138.216,98.962 137,96.5C 136.188,105.752 133.521,114.418 129,122.5C 128.333,123.833 127.667,123.833 127,122.5C 126.598,121.128 126.098,119.795 125.5,118.5C 127.777,112.886 128.277,107.219 127,101.5C 125.85,105.288 124.517,108.954 123,112.5C 122.058,109.626 120.891,106.96 119.5,104.5C 120.332,99.5192 120.498,94.5192 120,89.5C 119,88.5 118,87.5 117,86.5C 116.997,83.284 115.831,80.6174 113.5,78.5C 114.688,76.0115 116.021,73.6782 117.5,71.5C 120.513,72.8565 122.847,74.8565 124.5,77.5C 124.719,82.6294 125.386,82.6294 126.5,77.5C 127.412,76.2618 127.579,74.9285 127,73.5C 123.738,70.908 121.238,67.7413 119.5,64C 122.893,62.0666 126.559,60.9 130.5,60.5C 130.567,59.0413 130.234,57.7079 129.5,56.5C 129.714,54.8561 129.38,53.3561 128.5,52C 140.762,50.9409 147.596,56.4409 149,68.5C 147.122,66.9571 145.622,65.1238 144.5,63C 143.255,62.2086 141.922,61.7086 140.5,61.5 Z"/></g>
<g><path style="opacity:0.999" fill="#00f016" d="M 86.5,61.5 C 89.6399,60.3592 92.9733,60.1925 96.5,61C 92.966,63.2709 89.6327,63.4375 86.5,61.5 Z"/></g>
<g><path style="opacity:0.176" fill="#aeaeae" d="M 140.5,61.5 C 138.565,62.1495 136.565,62.4828 134.5,62.5C 134.859,61.3742 136.192,60.7075 138.5,60.5C 139.416,60.5427 140.083,60.8761 140.5,61.5 Z"/></g>
<g><path style="opacity:0.996" fill="#00f115" d="M 56.5,67.5 C 57.2674,68.172 57.9341,69.0053 58.5,70C 56.9452,71.2893 55.2785,71.956 53.5,72C 54.8825,70.7292 55.8825,69.2292 56.5,67.5 Z"/></g>
<g><path style="opacity:0.996" fill="#00f116" d="M 59.5,75.5 C 61.0986,76.7985 61.5986,78.4652 61,80.5C 58.294,82.8706 55.9606,85.5372 54,88.5C 54.698,83.7611 56.5313,79.4278 59.5,75.5 Z"/></g>
<g><path style="opacity:0.995" fill="#272727" d="M 138.5,49.5 C 140.5,49.5 142.5,49.5 144.5,49.5C 147.213,53.2347 149.713,57.2347 152,61.5C 153.383,66.8405 153.883,72.1738 153.5,77.5C 153.318,80.6857 151.652,82.6857 148.5,83.5C 147.292,101.445 141.292,117.779 130.5,132.5C 133.57,139.379 136.236,146.379 138.5,153.5C 137.5,153.5 136.5,153.5 135.5,153.5C 135.5,154.833 135.5,156.167 135.5,157.5C 135.167,157.5 134.833,157.5 134.5,157.5C 128.173,140.844 121.84,124.177 115.5,107.5C 117.735,106.773 119.069,105.773 119.5,104.5C 120.891,106.96 122.058,109.626 123,112.5C 124.517,108.954 125.85,105.288 127,101.5C 128.277,107.219 127.777,112.886 125.5,118.5C 126.098,119.795 126.598,121.128 127,122.5C 127.667,123.833 128.333,123.833 129,122.5C 133.521,114.418 136.188,105.752 137,96.5C 138.216,98.962 138.882,101.629 139,104.5C 142.035,98.4853 143.035,92.1519 142,85.5C 140.282,84.1498 138.448,82.9832 136.5,82C 139.236,81.5783 141.902,81.5783 144.5,82C 141.076,76.4182 137.576,76.2515 134,81.5C 134.035,75.8073 137.035,73.1406 143,73.5C 144.727,73.6465 144.894,74.3131 143.5,75.5C 145.108,76.3184 146.775,76.9851 148.5,77.5C 148.838,75.3448 148.838,73.0115 148.5,70.5C 145.753,70.8134 143.086,70.48 140.5,69.5C 138.477,67.1472 136.477,64.8138 134.5,62.5C 136.565,62.4828 138.565,62.1495 140.5,61.5C 141.922,61.7086 143.255,62.2086 144.5,63C 145.622,65.1238 147.122,66.9571 149,68.5C 147.596,56.4409 140.762,50.9409 128.5,52C 129.38,53.3561 129.714,54.8561 129.5,56.5C 128.603,57.5981 127.77,57.5981 127,56.5C 125.807,54.1136 124.64,51.7802 123.5,49.5C 123.586,48.5041 123.252,47.6708 122.5,47C 124.462,47.1407 126.296,46.974 128,46.5C 131.553,47.4288 135.053,48.4288 138.5,49.5 Z"/></g>
<g><path style="opacity:0.129" fill="#aeaeae" d="M 124.5,77.5 C 125.167,77.5 125.833,77.5 126.5,77.5C 125.386,82.6294 124.719,82.6294 124.5,77.5 Z"/></g>
<g><path style="opacity:0.027" fill="#bdbdbd" d="M 46.5,86.5 C 46.5,85.8333 46.1667,85.5 45.5,85.5C 46.1217,84.3734 46.955,83.3734 48,82.5C 48.3478,84.1398 47.8478,85.4732 46.5,86.5 Z"/></g>
<g><path style="opacity:0.996" fill="#00f115" d="M 88.5,86.5 C 90.7949,85.0719 92.7949,85.5719 94.5,88C 92.1261,88.7432 90.1261,88.2432 88.5,86.5 Z"/></g>
<g><path style="opacity:0.999" fill="#00f016" d="M 97.5,86.5 C 98.8221,86.33 99.9887,86.6634 101,87.5C 101.667,89.8333 101.667,92.1667 101,94.5C 99.0073,92.1825 97.8406,89.5158 97.5,86.5 Z"/></g>
<g><path style="opacity:0.969" fill="#01f016" d="M 64.5,88.5 C 66.5309,91.5539 68.1976,94.8872 69.5,98.5C 63.0538,100.246 63.0538,101.58 69.5,102.5C 63.6749,103.277 57.8415,103.944 52,104.5C 49.5521,106.397 46.8855,108.064 44,109.5C 46.3506,103.994 50.5173,100.328 56.5,98.5C 58.2365,94.3264 60.9032,90.9931 64.5,88.5 Z"/></g>
<g><path style="opacity:0.996" fill="#00f116" d="M 84.5,90.5 C 86.2663,93.1879 87.933,96.0212 89.5,99C 85.3672,102.131 81.5338,105.631 78,109.5C 76.1599,107.835 75.4932,105.835 76,103.5C 79.0561,99.2841 81.8894,94.9507 84.5,90.5 Z"/></g>
<g><path style="opacity:0.999" fill="#00f016" d="M 93.5,90.5 C 95.5901,90.4501 96.9234,91.4501 97.5,93.5C 94.8996,96.4876 92.8996,96.1542 91.5,92.5C 92.2427,91.8182 92.9094,91.1515 93.5,90.5 Z"/></g>
<g><path style="opacity:1" fill="#03f017" d="M 115.5,107.5 C 121.84,124.177 128.173,140.844 134.5,157.5C 126.137,142.45 117.97,127.117 110,111.5C 109.833,112.333 109.667,113.167 109.5,114C 110.581,117.468 111.081,120.968 111,124.5C 109,127.167 107,129.833 105,132.5C 101.5,126.167 98,119.833 94.5,113.5C 98.7041,111.801 102.204,109.134 105,105.5C 105.154,102.937 104.654,100.437 103.5,98C 104.961,95.7017 106.628,93.5351 108.5,91.5C 110.843,96.8506 113.176,102.184 115.5,107.5 Z"/></g>
<g><path style="opacity:0.996" fill="#01f017" d="M 97.5,95.5 C 101.787,98.1553 101.453,100.155 96.5,101.5C 93.7699,98.9669 94.1032,96.9669 97.5,95.5 Z"/></g>
<g><path style="opacity:0.999" fill="#03f017" d="M 99.5,101.5 C 103.415,103.198 103.415,105.198 99.5,107.5C 96.8598,105.465 96.8598,103.465 99.5,101.5 Z"/></g>
<g><path style="opacity:1" fill="#01f016" d="M 68.5,106.5 C 70.2031,110.233 72.2031,113.9 74.5,117.5C 70.1117,121.221 65.4451,124.555 60.5,127.5C 56.1951,121.983 53.8618,115.65 53.5,108.5C 58.6678,108.066 63.6678,107.4 68.5,106.5 Z"/></g>
<g><path style="opacity:1" fill="#00f016" d="M 47.5,111.5 C 49.2307,118.469 52.2307,124.969 56.5,131C 47.8389,134.08 39.3389,137.58 31,141.5C 27.9278,138.448 26.0945,134.782 25.5,130.5C 30.9148,128.629 36.2482,126.462 41.5,124C 37.8641,124.319 34.1974,124.819 30.5,125.5C 30.6234,122.626 31.6234,120.126 33.5,118C 38.3774,116.058 43.0441,113.892 47.5,111.5 Z"/></g>
<g><path style="opacity:1" fill="#18f020" d="M 93.5,126.5 C 94.5,126.5 95.5,126.5 96.5,126.5C 96.5,127.5 96.5,128.5 96.5,129.5C 93.7531,129.813 91.0865,129.48 88.5,128.5C 90.2914,127.83 91.9581,127.163 93.5,126.5 Z"/></g>
<g><path style="opacity:0.996" fill="#02f017" d="M 97.5,131.5 C 99.5152,133.676 101.182,136.176 102.5,139C 102.167,139.333 101.833,139.667 101.5,140C 97.9222,141.037 94.2556,141.537 90.5,141.5C 85.2512,141.7 80.2512,140.867 75.5,139C 81.4051,138.699 87.0718,137.365 92.5,135C 94.5844,134.303 96.2511,133.136 97.5,131.5 Z"/></g>
<g><path style="opacity:0.992" fill="#21f028" d="M 134.5,157.5 C 134.833,157.5 135.167,157.5 135.5,157.5C 136.038,159.117 136.371,160.784 136.5,162.5C 135.069,161.22 134.402,159.553 134.5,157.5 Z"/></g>
<g><path style="opacity:0.176" fill="#afafaf" d="M 136.5,163.5 C 137.376,163.369 138.043,163.702 138.5,164.5C 139.69,167.174 140.524,169.84 141,172.5C 138.962,169.757 137.462,166.757 136.5,163.5 Z"/></g>
</symbol>
<symbol id="large" viewBox="0 0 250 150">
<g><path style="opacity:1" fill="#3cfa2b" d="M 99.5,7.5 C 99.528,9.58236 98.8613,11.4157 97.5,13C 97.7284,13.3988 98.0618,13.5654 98.5,13.5C 96.3922,17.4477 94.0589,21.281 91.5,25C 110.672,25.6287 129.839,25.462 149,24.5C 153.5,24.6667 158,24.8333 162.5,25C 163.416,25.2784 164.082,25.7784 164.5,26.5C 164.5,37.5 164.5,48.5 164.5,59.5C 166.833,59.5 169.167,59.5 171.5,59.5C 171.333,48.8281 171.5,38.1615 172,27.5C 172.717,26.9558 173.217,26.2891 173.5,25.5C 182.657,24.3424 191.991,24.1757 201.5,25C 202.687,26.0195 203.687,27.1861 204.5,28.5C 202.979,32.8421 203.646,33.3421 206.5,30C 210.271,27.7813 214.271,26.1146 218.5,25C 228.167,24.3333 237.833,24.3333 247.5,25C 248.728,25.779 249.728,26.779 250.5,28C 249.167,32.3333 249.167,36.6667 250.5,41C 250.252,42.7491 249.252,43.5824 247.5,43.5C 245.143,43.3367 242.81,43.5034 240.5,44C 241.527,44.5133 242.527,45.0133 243.5,45.5C 257.458,50.5784 260.958,59.5784 254,72.5C 245.495,78.499 235.995,81.1657 225.5,80.5C 219.493,80.0902 213.493,79.5902 207.5,79C 205,78.6253 202.667,77.7919 200.5,76.5C 199.5,77 198.5,77.5 197.5,78C 177.833,78.6667 158.167,78.6667 138.5,78C 136.989,76.3851 135.656,76.3851 134.5,78C 112.5,78.3333 90.5,78.6667 68.5,79C 61.4618,85.7071 54.1284,92.0404 46.5,98C 43.5,98.6667 40.5,98.6667 37.5,98C 35.7888,96.8668 35.2888,95.3668 36,93.5C 39.8672,88.932 43.3672,84.0987 46.5,79C 33.8333,78.6667 21.1667,78.3333 8.5,78C 7.97814,77.4387 7.6448,76.772 7.5,76C 15.4063,65.5269 23.0729,54.8603 30.5,44C 25.1146,43.7861 19.7813,43.2861 14.5,42.5C 13.3861,41.277 13.2195,39.9437 14,38.5C 16.3333,34.5 18.6667,30.5 21,26.5C 22.4382,25.2815 24.1049,24.6148 26,24.5C 40.4464,24.4372 54.9464,24.6039 69.5,25C 76.5258,18.6382 83.5258,12.3049 90.5,6C 93.8632,5.07261 96.8632,5.57261 99.5,7.5 Z M 67.5,42.5 C 67.3398,44.1992 67.5065,45.8659 68,47.5C 68.6708,48.2524 69.5041,48.5858 70.5,48.5C 75.8333,49.1667 81.1667,49.8333 86.5,50.5C 82.183,53.4864 78.183,56.8197 74.5,60.5C 73.5,59.8333 72.5,59.1667 71.5,58.5C 70.7095,57.5987 69.7095,56.9321 68.5,56.5C 63.3054,56.8205 58.3054,56.4872 53.5,55.5C 58.1667,51.1667 62.8333,46.8333 67.5,42.5 Z M 219.5,58.5 C 218.081,59.4511 216.415,59.7845 214.5,59.5C 210.881,58.7564 207.215,58.423 203.5,58.5C 203.335,55.1501 203.502,51.8168 204,48.5C 208.261,53.2653 213.428,56.5987 219.5,58.5 Z"/></g>
<g><path style="opacity:0.966" fill="#000000" d="M 92.5,8.5 C 93.675,8.28099 94.675,8.61432 95.5,9.5C 92.2931,15.4147 88.9598,21.2481 85.5,27C 100.496,27.4999 115.496,27.6666 130.5,27.5C 130.5,31.8333 130.5,36.1667 130.5,40.5C 123.833,40.5 117.167,40.5 110.5,40.5C 110.5,42.1667 110.5,43.8333 110.5,45.5C 116.842,45.3338 123.175,45.5005 129.5,46C 130.833,50 130.833,54 129.5,58C 123.175,58.4995 116.842,58.6662 110.5,58.5C 110.5,60.1667 110.5,61.8333 110.5,63.5C 117.5,63.5 124.5,63.5 131.5,63.5C 131.5,67.8333 131.5,72.1667 131.5,76.5C 109.164,76.3334 86.8308,76.5 64.5,77C 57.2954,83.8734 49.7954,90.3734 42,96.5C 40.7705,95.7248 40.4372,94.7248 41,93.5C 45.1667,88 49.3333,82.5 53.5,77C 39.8212,76.8327 26.1545,76.3327 12.5,75.5C 21.0269,64.1399 29.3602,52.6399 37.5,41C 30.8333,40.6667 24.1667,40.3333 17.5,40C 19.9186,35.828 22.5852,31.828 25.5,28C 41.5,27.6667 57.5,27.3333 73.5,27C 80.0596,20.9387 86.393,14.772 92.5,8.5 Z M 67.5,42.5 C 67.3398,44.1992 67.5065,45.8659 68,47.5C 68.6708,48.2524 69.5041,48.5858 70.5,48.5C 75.8333,49.1667 81.1667,49.8333 86.5,50.5C 82.183,53.4864 78.183,56.8197 74.5,60.5C 73.5,59.8333 72.5,59.1667 71.5,58.5C 70.7095,57.5987 69.7095,56.9321 68.5,56.5C 63.3054,56.8205 58.3054,56.4872 53.5,55.5C 58.1667,51.1667 62.8333,46.8333 67.5,42.5 Z"/></g>
<g><path style="opacity:0.012" fill="#a8ffa6" d="M 99.5,7.5 C 100.794,9.67997 100.461,11.68 98.5,13.5C 98.0618,13.5654 97.7284,13.3988 97.5,13C 98.8613,11.4157 99.528,9.58236 99.5,7.5 Z"/></g>
<g><path style="opacity:0.999" fill="#2ff91e" d="M 84.5,19.5 C 85.2389,19.369 85.9056,19.5357 86.5,20C 80.8697,28.0886 75.8697,36.5886 71.5,45.5C 79.4793,46.3316 87.4793,46.8316 95.5,47C 81.3522,58.9801 67.3522,71.1467 53.5,83.5C 53.1667,83.3333 52.8333,83.1667 52.5,83C 57.8333,75.6667 63.1667,68.3333 68.5,61C 60.6646,59.6984 52.6646,59.0317 44.5,59C 58.3392,46.3274 71.6725,33.1607 84.5,19.5 Z M 67.5,42.5 C 67.3398,44.1992 67.5065,45.8659 68,47.5C 68.6708,48.2524 69.5041,48.5858 70.5,48.5C 75.8333,49.1667 81.1667,49.8333 86.5,50.5C 82.183,53.4864 78.183,56.8197 74.5,60.5C 73.5,59.8333 72.5,59.1667 71.5,58.5C 70.7095,57.5987 69.7095,56.9321 68.5,56.5C 63.3054,56.8205 58.3054,56.4872 53.5,55.5C 58.1667,51.1667 62.8333,46.8333 67.5,42.5 Z"/></g>
<g><path style="opacity:0.986" fill="#000000" d="M 226.5,26.5 C 232.829,26.8995 239.162,27.2329 245.5,27.5C 245.5,32.1667 245.5,36.8333 245.5,41.5C 241.445,41.1758 237.445,41.5091 233.5,42.5C 238.5,45.6667 243.5,48.8333 248.5,52C 255.813,60.4738 254.813,67.8072 245.5,74C 233.045,77.8696 220.379,78.5363 207.5,76C 205.593,71.4816 204.926,66.6483 205.5,61.5C 212.393,62.58 219.227,62.58 226,61.5C 226.749,60.365 226.583,59.365 225.5,58.5C 219,55.8219 213.167,52.1552 208,47.5C 203.963,40.8845 205.13,35.3845 211.5,31C 216.388,28.7003 221.388,27.2003 226.5,26.5 Z"/></g>
<g><path style="opacity:0.973" fill="#000000" d="M 137.5,27.5 C 145.5,27.5 153.5,27.5 161.5,27.5C 161.333,38.505 161.5,49.505 162,60.5C 166.333,61.8333 170.667,61.8333 175,60.5C 175.5,49.505 175.667,38.505 175.5,27.5C 183.5,27.5 191.5,27.5 199.5,27.5C 199.667,42.837 199.5,58.1703 199,73.5C 197.352,74.717 195.519,75.5503 193.5,76C 176.833,76.6667 160.167,76.6667 143.5,76C 141.324,75.8371 139.491,75.0037 138,73.5C 137.5,58.1703 137.333,42.837 137.5,27.5 Z"/></g>
<g><path style="opacity:0.333" fill="#a1ff9e" d="M 68.5,42.5 C 68.5,41.8333 68.1667,41.5 67.5,41.5C 68.4577,40.0384 69.6244,38.7051 71,37.5C 70.9031,39.4585 70.0698,41.1252 68.5,42.5 Z"/></g>
<g><path style="opacity:0.836" fill="#82ff7f" d="M 113.5,43.5 C 120.011,42.1819 126.678,42.1819 133.5,43.5C 127.014,43.5942 120.347,43.5942 113.5,43.5 Z"/></g>
<g><path style="opacity:0.09" fill="#b0ffb0" d="M 247.5,43.5 C 246.167,44.1667 244.833,44.8333 243.5,45.5C 242.527,45.0133 241.527,44.5133 240.5,44C 242.81,43.5034 245.143,43.3367 247.5,43.5 Z"/></g>
<g><path style="opacity:0.643" fill="#a7ffa6" d="M 173.5,25.5 C 173.217,26.2891 172.717,26.9558 172,27.5C 171.5,38.1615 171.333,48.8281 171.5,59.5C 169.167,59.5 166.833,59.5 164.5,59.5C 164.5,48.5 164.5,37.5 164.5,26.5C 165.494,36.9869 165.828,47.6536 165.5,58.5C 167.167,58.5 168.833,58.5 170.5,58.5C 170.333,47.8281 170.5,37.1615 171,26.5C 171.671,25.7476 172.504,25.4142 173.5,25.5 Z"/></g>
<g><path style="opacity:0.407" fill="#9eff9d" d="M 70.5,48.5 C 76.5092,48.3338 82.5092,48.5005 88.5,49C 87.9558,49.7172 87.2891,50.2172 86.5,50.5C 81.1667,49.8333 75.8333,49.1667 70.5,48.5 Z"/></g>
<g><path style="opacity:0.125" fill="#96ff95" d="M 53.5,55.5 C 58.3054,56.4872 63.3054,56.8205 68.5,56.5C 62.9871,57.8157 57.3204,57.8157 51.5,56.5C 51.9569,55.7025 52.6236,55.3691 53.5,55.5 Z"/></g>
<g><path style="opacity:0.214" fill="#a4ffa0" d="M 219.5,58.5 C 220.473,58.9867 221.473,59.4867 222.5,60C 219.633,60.8007 216.966,60.6341 214.5,59.5C 216.415,59.7845 218.081,59.4511 219.5,58.5 Z"/></g>
<g><path style="opacity:0.626" fill="#a4ffa2" d="M 131.5,59.5 C 132.376,59.3691 133.043,59.7025 133.5,60.5C 126.858,61.6642 120.192,61.8309 113.5,61C 119.681,60.8276 125.681,60.3276 131.5,59.5 Z"/></g>
<g><path style="opacity:0.459" fill="#b7ffb4" d="M 71.5,58.5 C 72.5,59.1667 73.5,59.8333 74.5,60.5C 74.189,61.4778 73.5223,62.1445 72.5,62.5C 71.5713,61.3112 71.238,59.9778 71.5,58.5 Z"/></g>
</symbol>
</svg>