<svg width="0" height="0" xmlns="http://www.w3.org/2000/svg">
<symbol id="small" viewBox="0 0 150 150">
<g><path style="opacity:1" fill="#3cfa2b" d="M 99.5,7.5 C 99.528,9.58236 98.8613,11.4157 97.5,13C 97.7284,13.3988 98.0618,13.5654 98.5,13.5C 96.3922,17.4477 94.0589,21.281 91.5,25C 110.672,25.6287 129.839,25.462 149,24.5C 153.5,24.6667 158,24.8333 162.5,25C 163.416,25.2784 164.082,25.7784 164.5,26.5C 164.5,37.5 164.5,48.5 164.5,59.5C 166.833,59.5 169.167,59.5 171.5,59.5C 171.333,48.8281 171.5,38.1615 172,27.5C 172.717,26.9558 173.217,26.2891 173.5,25.5C 182.657,24.3424 191.991,24.1757 201.5,25C 202.687,26.0195 203.687,27.1861 204.5,28.5C 202.979,32.8421 203.646,33.3421 206.5,30C 210.271,27.7813 214.271,26.1146 218.5,25C 228.167,24.3333 237.833,24.3333 247.5,25C 248.728,25.779 249.728,26.779 250.5,28C 249.167,32.3333 249.167,36.6667 250.5,41C 250.252,42.7491 249.252,43.5824 247.5,43.5C 245.143,43.3367 242.81,43.5034 240.5,44C 241.527,44.5133 242.527,45.0133 243.5,45.5C 257.458,50.5784 260.958,59.5784 254,72.5C 245.495,78.499 235.995,81.1657 225.5,80.5C 219.493,80.0902 213.493,79.5902 207.5,79C 205,78.6253 202.667,77.7919 200.5,76.5C 199.5,77 198.5,77.5 197.5,78C 177.833,78.6667 158.167,78.6667 138.5,78C 136.989,76.3851 135.656,76.3851 134.5,78C 112.5,78.3333 90.5,78.6667 68.5,79C 61.4618,85.7071 54.1284,92.0404 46.5,98C 43.5,98.6667 40.5,98.6667 37.5,98C 35.7888,96.8668 35.2888,95.3668 36,93.5C 39.8672,88.932 43.3672,84.0987 46.5,79C 33.8333,78.6667 21.1667,78.3333 8.5,78C 7.97814,77.4387 7.6448,76.772 7.5,76C 15.4063,65.5269 23.0729,54.8603 30.5,44C 25.1146,43.7861 19.7813,43.2861 14.5,42.5C 13.3861,41.277 13.2195,39.9437 14,38.5C 16.3333,34.5 18.6667,30.5 21,26.5C 22.4382,25.2815 24.1049,24.6148 26,24.5C 40.4464,24.4372 54.9464,24.6039 69.5,25C 76.5258,18.6382 83.5258,12.3049 90.5,6C 93.8632,5.07261 96.8632,5.57261 99.5,7.5 Z M 67.5,42.5 C 67.3398,44.1992 67.5065,45.8659 68,47.5C 68.6708,48.2524 69.5041,48.5858 70.5,48.5C 75.8333,49.1667 81.1667,49.8333 86.5,50.5C 82.183,53.4864 78.183,56.8197 74.5,60.5C 73.5,59.8333 72.5,59.1667 71.5,58.5C 70.7095,57.5987 69.7095,56.9321 68.5,56.5C 63.3054,56.8205 58.3054,56.4872 53.5,55.5C 58.1667,51.1667 62.8333,46.8333 67.5,42.5 Z M 219.5,58.5 C 218.081,59.4511 216.415,59.7845 214.5,59.5C 210.881,58.7564 207.215,58.423 203.5,58.5C 203.335,55.1501 203.502,51.8168 204,48.5C 208.261,53.2653 213.428,56.5987 219.5,58.5 Z"/></g>
<g><path style="opacity:0.966" fill="#000000" d="M 92.5,8.5 C 93.675,8.28099 94.675,8.61432 95.5,9.5C 92.2931,15.4147 88.9598,21.2481 85.5,27C 100.496,27.4999 115.496,27.6666 130.5,27.5C 130.5,31.8333 130.5,36.1667 130.5,40.5C 123.833,40.5 117.167,40.5 110.5,40.5C 110.5,42.1667 110.5,43.8333 110.5,45.5C 116.842,45.3338 123.175,45.5005 129.5,46C 130.833,50 130.833,54 129.5,58C 123.175,58.4995 116.842,58.6662 110.5,58.5C 110.5,60.1667 110.5,61.8333 110.5,63.5C 117.5,63.5 124.5,63.5 131.5,63.5C 131.5,67.8333 131.5,72.1667 131.5,76.5C 109.164,76.3334 86.8308,76.5 64.5,77C 57.2954,83.8734 49.7954,90.3734 42,96.5C 40.7705,95.7248 40.4372,94.7248 41,93.5C 45.1667,88 49.3333,82.5 53.5,77C 39.8212,76.8327 26.1545,76.3327 12.5,75.5C 21.0269,64.1399 29.3602,52.6399 37.5,41C 30.8333,40.6667 24.1667,40.3333 17.5,40C 19.9186,35.828 22.5852,31.828 25.5,28C 41.5,27.6667 57.5,27.3333 73.5,27C 80.0596,20.9387 86.393,14.772 92.5,8.5 Z M 67.5,42.5 C 67.3398,44.1992 67.5065,45.8659 68,47.5C 68.6708,48.2524 69.5041,48.5858 70.5,48.5C 75.8333,49.1667 81.1667,49.8333 86.5,50.5C 82.183,53.4864 78.183,56.8197 74.5,60.5C 73.5,59.8333 72.5,59.1667 71.5,58.5C 70.7095,57.5987 69.7095,56.9321 68.5,56.5C 63.3054,56.8205 58.3054,56.4872 53.5,55.5C 58.1667,51.1667 62.8333,46.8333 67.5,42.5 Z"/></g>
<g><path style="opacity:0.012" fill="#a8ffa6" d="M 99.5,7.5 C 100.794,9.67997 100.461,11.68 98.5,13.5C 98.0618,13.5654 97.7284,13.3988 97.5,13C 98.8613,11.4157 99.528,9.58236 99.5,7.5 Z"/></g>
<g><path style="opacity:0.999" fill="#2ff91e" d="M 84.5,19.5 C 85.2389,19.369 85.9056,19.5357 86.5,20C 80.8697,28.0886 75.8697,36.5886 71.5,45.5C 79.4793,46.3316 87.4793,46.8316 95.5,47C 81.3522,58.9801 67.3522,71.1467 53.5,83.5C 53.1667,83.3333 52.8333,83.1667 52.5,83C 57.8333,75.6667 63.1667,68.3333 68.5,61C 60.6646,59.6984 52.6646,59.0317 44.5,59C 58.3392,46.3274 71.6725,33.1607 84.5,19.5 Z M 67.5,42.5 C 67.3398,44.1992 67.5065,45.8659 68,47.5C 68.6708,48.2524 69.5041,48.5858 70.5,48.5C 75.8333,49.1667 81.1667,49.8333 86.5,50.5C 82.183,53.4864 78.183,56.8197 74.5,60.5C 73.5,59.8333 72.5,59.1667 71.5,58.5C 70.7095,57.5987 69.7095,56.9321 68.5,56.5C 63.3054,56.8205 58.3054,56.4872 53.5,55.5C 58.1667,51.1667 62.8333,46.8333 67.5,42.5 Z"/></g>
<g><path style="opacity:0.986" fill="#000000" d="M 226.5,26.5 C 232.829,26.8995 239.162,27.2329 245.5,27.5C 245.5,32.1667 245.5,36.8333 245.5,41.5C 241.445,41.1758 237.445,41.5091 233.5,42.5C 238.5,45.6667 243.5,48.8333 248.5,52C 255.813,60.4738 254.813,67.8072 245.5,74C 233.045,77.8696 220.379,78.5363 207.5,76C 205.593,71.4816 204.926,66.6483 205.5,61.5C 212.393,62.58 219.227,62.58 226,61.5C 226.749,60.365 226.583,59.365 225.5,58.5C 219,55.8219 213.167,52.1552 208,47.5C 203.963,40.8845 205.13,35.3845 211.5,31C 216.388,28.7003 221.388,27.2003 226.5,26.5 Z"/></g>
<g><path style="opacity:0.973" fill="#000000" d="M 137.5,27.5 C 145.5,27.5 153.5,27.5 161.5,27.5C 161.333,38.505 161.5,49.505 162,60.5C 166.333,61.8333 170.667,61.8333 175,60.5C 175.5,49.505 175.667,38.505 175.5,27.5C 183.5,27.5 191.5,27.5 199.5,27.5C 199.667,42.837 199.5,58.1703 199,73.5C 197.352,74.717 195.519,75.5503 193.5,76C 176.833,76.6667 160.167,76.6667 143.5,76C 141.324,75.8371 139.491,75.0037 138,73.5C 137.5,58.1703 137.333,42.837 137.5,27.5 Z"/></g>
<g><path style="opacity:0.333" fill="#a1ff9e" d="M 68.5,42.5 C 68.5,41.8333 68.1667,41.5 67.5,41.5C 68.4577,40.0384 69.6244,38.7051 71,37.5C 70.9031,39.4585 70.0698,41.1252 68.5,42.5 Z"/></g>
<g><path style="opacity:0.836" fill="#82ff7f" d="M 113.5,43.5 C 120.011,42.1819 126.678,42.1819 133.5,43.5C 127.014,43.5942 120.347,43.5942 113.5,43.5 Z"/></g>
<g><path style="opacity:0.09" fill="#b0ffb0" d="M 247.5,43.5 C 246.167,44.1667 244.833,44.8333 243.5,45.5C 242.527,45.0133 241.527,44.5133 240.5,44C 242.81,43.5034 245.143,43.3367 247.5,43.5 Z"/></g>
<g><path style="opacity:0.643" fill="#a7ffa6" d="M 173.5,25.5 C 173.217,26.2891 172.717,26.9558 172,27.5C 171.5,38.1615 171.333,48.8281 171.5,59.5C 169.167,59.5 166.833,59.5 164.5,59.5C 164.5,48.5 164.5,37.5 164.5,26.5C 165.494,36.9869 165.828,47.6536 165.5,58.5C 167.167,58.5 168.833,58.5 170.5,58.5C 170.333,47.8281 170.5,37.1615 171,26.5C 171.671,25.7476 172.504,25.4142 173.5,25.5 Z"/></g>
<g><path style="opacity:0.407" fill="#9eff9d" d="M 70.5,48.5 C 76.5092,48.3338 82.5092,48.5005 88.5,49C 87.9558,49.7172 87.2891,50.2172 86.5,50.5C 81.1667,49.8333 75.8333,49.1667 70.5,48.5 Z"/></g>
<g><path style="opacity:0.125" fill="#96ff95" d="M 53.5,55.5 C 58.3054,56.4872 63.3054,56.8205 68.5,56.5C 62.9871,57.8157 57.3204,57.8157 51.5,56.5C 51.9569,55.7025 52.6236,55.3691 53.5,55.5 Z"/></g>
<g><path style="opacity:0.214" fill="#a4ffa0" d="M 219.5,58.5 C 220.473,58.9867 221.473,59.4867 222.5,60C 219.633,60.8007 216.966,60.6341 214.5,59.5C 216.415,59.7845 218.081,59.4511 219.5,58.5 Z"/></g>
<g><path style="opacity:0.626" fill="#a4ffa2" d="M 131.5,59.5 C 132.376,59.3691 133.043,59.7025 133.5,60.5C 126.858,61.6642 120.192,61.8309 113.5,61C 119.681,60.8276 125.681,60.3276 131.5,59.5 Z"/></g>
<g><path style="opacity:0.459" fill="#b7ffb4" d="M 71.5,58.5 C 72.5,59.1667 73.5,59.8333 74.5,60.5C 74.189,61.4778 73.5223,62.1445 72.5,62.5C 71.5713,61.3112 71.238,59.9778 71.5,58.5 Z"/></g>
</symbol>
<symbol id="large" viewBox="0 0 250 150">
<g><path style="opacity:1" fill="#3cfa2b" d="M 99.5,7.5 C 99.528,9.58236 98.8613,11.4157 97.5,13C 97.7284,13.3988 98.0618,13.5654 98.5,13.5C 96.3922,17.4477 94.0589,21.281 91.5,25C 110.672,25.6287 129.839,25.462 149,24.5C 153.5,24.6667 158,24.8333 162.5,25C 163.416,25.2784 164.082,25.7784 164.5,26.5C 164.5,37.5 164.5,48.5 164.5,59.5C 166.833,59.5 169.167,59.5 171.5,59.5C 171.333,48.8281 171.5,38.1615 172,27.5C 172.717,26.9558 173.217,26.2891 173.5,25.5C 182.657,24.3424 191.991,24.1757 201.5,25C 202.687,26.0195 203.687,27.1861 204.5,28.5C 202.979,32.8421 203.646,33.3421 206.5,30C 210.271,27.7813 214.271,26.1146 218.5,25C 228.167,24.3333 237.833,24.3333 247.5,25C 248.728,25.779 249.728,26.779 250.5,28C 249.167,32.3333 249.167,36.6667 250.5,41C 250.252,42.7491 249.252,43.5824 247.5,43.5C 245.143,43.3367 242.81,43.5034 240.5,44C 241.527,44.5133 242.527,45.0133 243.5,45.5C 257.458,50.5784 260.958,59.5784 254,72.5C 245.495,78.499 235.995,81.1657 225.5,80.5C 219.493,80.0902 213.493,79.5902 207.5,79C 205,78.6253 202.667,77.7919 200.5,76.5C 199.5,77 198.5,77.5 197.5,78C 177.833,78.6667 158.167,78.6667 138.5,78C 136.989,76.3851 135.656,76.3851 134.5,78C 112.5,78.3333 90.5,78.6667 68.5,79C 61.4618,85.7071 54.1284,92.0404 46.5,98C 43.5,98.6667 40.5,98.6667 37.5,98C 35.7888,96.8668 35.2888,95.3668 36,93.5C 39.8672,88.932 43.3672,84.0987 46.5,79C 33.8333,78.6667 21.1667,78.3333 8.5,78C 7.97814,77.4387 7.6448,76.772 7.5,76C 15.4063,65.5269 23.0729,54.8603 30.5,44C 25.1146,43.7861 19.7813,43.2861 14.5,42.5C 13.3861,41.277 13.2195,39.9437 14,38.5C 16.3333,34.5 18.6667,30.5 21,26.5C 22.4382,25.2815 24.1049,24.6148 26,24.5C 40.4464,24.4372 54.9464,24.6039 69.5,25C 76.5258,18.6382 83.5258,12.3049 90.5,6C 93.8632,5.07261 96.8632,5.57261 99.5,7.5 Z M 67.5,42.5 C 67.3398,44.1992 67.5065,45.8659 68,47.5C 68.6708,48.2524 69.5041,48.5858 70.5,48.5C 75.8333,49.1667 81.1667,49.8333 86.5,50.5C 82.183,53.4864 78.183,56.8197 74.5,60.5C 73.5,59.8333 72.5,59.1667 71.5,58.5C 70.7095,57.5987 69.7095,56.9321 68.5,56.5C 63.3054,56.8205 58.3054,56.4872 53.5,55.5C 58.1667,51.1667 62.8333,46.8333 67.5,42.5 Z M 219.5,58.5 C 218.081,59.4511 216.415,59.7845 214.5,59.5C 210.881,58.7564 207.215,58.423 203.5,58.5C 203.335,55.1501 203.502,51.8168 204,48.5C 208.261,53.2653 213.428,56.5987 219.5,58.5 Z"/></g>
<g><path style="opacity:0.966" fill="#000000" d="M 92.5,8.5 C 93.675,8.28099 94.675,8.61432 95.5,9.5C 92.2931,15.4147 88.9598,21.2481 85.5,27C 100.496,27.4999 115.496,27.6666 130.5,27.5C 130.5,31.8333 130.5,36.1667 130.5,40.5C 123.833,40.5 117.167,40.5 110.5,40.5C 110.5,42.1667 110.5,43.8333 110.5,45.5C 116.842,45.3338 123.175,45.5005 129.5,46C 130.833,50 130.833,54 129.5,58C 123.175,58.4995 116.842,58.6662 110.5,58.5C 110.5,60.1667 110.5,61.8333 110.5,63.5C 117.5,63.5 124.5,63.5 131.5,63.5C 131.5,67.8333 131.5,72.1667 131.5,76.5C 109.164,76.3334 86.8308,76.5 64.5,77C 57.2954,83.8734 49.7954,90.3734 42,96.5C 40.7705,95.7248 40.4372,94.7248 41,93.5C 45.1667,88 49.3333,82.5 53.5,77C 39.8212,76.8327 26.1545,76.3327 12.5,75.5C 21.0269,64.1399 29.3602,52.6399 37.5,41C 30.8333,40.6667 24.1667,40.3333 17.5,40C 19.9186,35.828 22.5852,31.828 25.5,28C 41.5,27.6667 57.5,27.3333 73.5,27C 80.0596,20.9387 86.393,14.772 92.5,8.5 Z M 67.5,42.5 C 67.3398,44.1992 67.5065,45.8659 68,47.5C 68.6708,48.2524 69.5041,48.5858 70.5,48.5C 75.8333,49.1667 81.1667,49.8333 86.5,50.5C 82.183,53.4864 78.183,56.8197 74.5,60.5C 73.5,59.8333 72.5,59.1667 71.5,58.5C 70.7095,57.5987 69.7095,56.9321 68.5,56.5C 63.3054,56.8205 58.3054,56.4872 53.5,55.5C 58.1667,51.1667 62.8333,46.8333 67.5,42.5 Z"/></g>
<g><path style="opacity:0.012" fill="#a8ffa6" d="M 99.5,7.5 C 100.794,9.67997 100.461,11.68 98.5,13.5C 98.0618,13.5654 97.7284,13.3988 97.5,13C 98.8613,11.4157 99.528,9.58236 99.5,7.5 Z"/></g>
<g><path style="opacity:0.999" fill="#2ff91e" d="M 84.5,19.5 C 85.2389,19.369 85.9056,19.5357 86.5,20C 80.8697,28.0886 75.8697,36.5886 71.5,45.5C 79.4793,46.3316 87.4793,46.8316 95.5,47C 81.3522,58.9801 67.3522,71.1467 53.5,83.5C 53.1667,83.3333 52.8333,83.1667 52.5,83C 57.8333,75.6667 63.1667,68.3333 68.5,61C 60.6646,59.6984 52.6646,59.0317 44.5,59C 58.3392,46.3274 71.6725,33.1607 84.5,19.5 Z M 67.5,42.5 C 67.3398,44.1992 67.5065,45.8659 68,47.5C 68.6708,48.2524 69.5041,48.5858 70.5,48.5C 75.8333,49.1667 81.1667,49.8333 86.5,50.5C 82.183,53.4864 78.183,56.8197 74.5,60.5C 73.5,59.8333 72.5,59.1667 71.5,58.5C 70.7095,57.5987 69.7095,56.9321 68.5,56.5C 63.3054,56.8205 58.3054,56.4872 53.5,55.5C 58.1667,51.1667 62.8333,46.8333 67.5,42.5 Z"/></g>
<g><path style="opacity:0.986" fill="#000000" d="M 226.5,26.5 C 232.829,26.8995 239.162,27.2329 245.5,27.5C 245.5,32.1667 245.5,36.8333 245.5,41.5C 241.445,41.1758 237.445,41.5091 233.5,42.5C 238.5,45.6667 243.5,48.8333 248.5,52C 255.813,60.4738 254.813,67.8072 245.5,74C 233.045,77.8696 220.379,78.5363 207.5,76C 205.593,71.4816 204.926,66.6483 205.5,61.5C 212.393,62.58 219.227,62.58 226,61.5C 226.749,60.365 226.583,59.365 225.5,58.5C 219,55.8219 213.167,52.1552 208,47.5C 203.963,40.8845 205.13,35.3845 211.5,31C 216.388,28.7003 221.388,27.2003 226.5,26.5 Z"/></g>
<g><path style="opacity:0.973" fill="#000000" d="M 137.5,27.5 C 145.5,27.5 153.5,27.5 161.5,27.5C 161.333,38.505 161.5,49.505 162,60.5C 166.333,61.8333 170.667,61.8333 175,60.5C 175.5,49.505 175.667,38.505 175.5,27.5C 183.5,27.5 191.5,27.5 199.5,27.5C 199.667,42.837 199.5,58.1703 199,73.5C 197.352,74.717 195.519,75.5503 193.5,76C 176.833,76.6667 160.167,76.6667 143.5,76C 141.324,75.8371 139.491,75.0037 138,73.5C 137.5,58.1703 137.333,42.837 137.5,27.5 Z"/></g>
<g><path style="opacity:0.333" fill="#a1ff9e" d="M 68.5,42.5 C 68.5,41.8333 68.1667,41.5 67.5,41.5C 68.4577,40.0384 69.6244,38.7051 71,37.5C 70.9031,39.4585 70.0698,41.1252 68.5,42.5 Z"/></g>
<g><path style="opacity:0.836" fill="#82ff7f" d="M 113.5,43.5 C 120.011,42.1819 126.678,42.1819 133.5,43.5C 127.014,43.5942 120.347,43.5942 113.5,43.5 Z"/></g>
<g><path style="opacity:0.09" fill="#b0ffb0" d="M 247.5,43.5 C 246.167,44.1667 244.833,44.8333 243.5,45.5C 242.527,45.0133 241.527,44.5133 240.5,44C 242.81,43.5034 245.143,43.3367 247.5,43.5 Z"/></g>
<g><path style="opacity:0.643" fill="#a7ffa6" d="M 173.5,25.5 C 173.217,26.2891 172.717,26.9558 172,27.5C 171.5,38.1615 171.333,48.8281 171.5,59.5C 169.167,59.5 166.833,59.5 164.5,59.5C 164.5,48.5 164.5,37.5 164.5,26.5C 165.494,36.9869 165.828,47.6536 165.5,58.5C 167.167,58.5 168.833,58.5 170.5,58.5C 170.333,47.8281 170.5,37.1615 171,26.5C 171.671,25.7476 172.504,25.4142 173.5,25.5 Z"/></g>
<g><path style="opacity:0.407" fill="#9eff9d" d="M 70.5,48.5 C 76.5092,48.3338 82.5092,48.5005 88.5,49C 87.9558,49.7172 87.2891,50.2172 86.5,50.5C 81.1667,49.8333 75.8333,49.1667 70.5,48.5 Z"/></g>
<g><path style="opacity:0.125" fill="#96ff95" d="M 53.5,55.5 C 58.3054,56.4872 63.3054,56.8205 68.5,56.5C 62.9871,57.8157 57.3204,57.8157 51.5,56.5C 51.9569,55.7025 52.6236,55.3691 53.5,55.5 Z"/></g>
<g><path style="opacity:0.214" fill="#a4ffa0" d="M 219.5,58.5 C 220.473,58.9867 221.473,59.4867 222.5,60C 219.633,60.8007 216.966,60.6341 214.5,59.5C 216.415,59.7845 218.081,59.4511 219.5,58.5 Z"/></g>
<g><path style="opacity:0.626" fill="#a4ffa2" d="M 131.5,59.5 C 132.376,59.3691 133.043,59.7025 133.5,60.5C 126.858,61.6642 120.192,61.8309 113.5,61C 119.681,60.8276 125.681,60.3276 131.5,59.5 Z"/></g>
<g><path style="opacity:0.459" fill="#b7ffb4" d="M 71.5,58.5 C 72.5,59.1667 73.5,59.8333 74.5,60.5C 74.189,61.4778 73.5223,62.1445 72.5,62.5C 71.5713,61.3112 71.238,59.9778 71.5,58.5 Z"/></g>
</symbol>
</svg>